# 3ds Max Wavefront OBJ Exporter v0.97b - (c)2007 guruware
# File Created: 22.08.2012 01:26:22

#
# object Box01
#

v  -0.129 -1.453 -0.400
v  -0.129 1.406 -0.400
v  0.109 1.406 -0.400
v  0.109 -1.453 -0.400
v  -0.116 -1.453 0.882
v  0.093 -1.453 0.882
v  -2.973 -1.453 0.882
v  -2.973 1.406 0.882
v  -2.434 1.406 -1.026
v  -2.434 -1.453 -1.026
v  -0.129 1.453 -0.365
v  -2.311 1.453 -1.045
v  -2.387 1.453 -1.008
v  -2.932 1.453 0.882
v  -0.116 1.453 0.882
v  2.919 1.406 0.882
v  2.919 -1.453 0.882
v  2.150 -1.453 -1.026
v  2.150 1.406 -1.026
v  2.035 -1.453 -1.080
v  2.035 1.406 -1.080
v  2.877 1.453 0.882
v  2.104 1.453 -1.008
v  2.031 1.453 -1.041
v  0.109 1.453 -0.366
v  0.093 1.453 0.882
v  -2.317 -1.453 -1.084
v  -2.317 1.406 -1.084
# 28 vertices

vn 0.200 -0.000 -0.980
vn -0.003 -0.000 -1.000
vn 0.000 -1.000 0.000
vn -0.980 -0.000 -0.201
vn -0.000 1.000 0.000
vn -0.000 1.000 -0.000
vn 0.000 1.000 -0.000
vn 0.960 -0.000 -0.281
vn -0.437 -0.000 -0.900
vn -0.558 -0.000 -0.830
vn 0.540 -0.000 -0.842
vn 0.285 0.691 -0.664
vn -0.701 0.698 -0.145
vn 0.685 0.700 -0.202
vn -0.317 0.687 -0.654
vn -0.395 0.707 -0.587
vn 0.382 0.707 -0.595
vn 0.395 -0.000 -0.919
vn -0.003 0.708 -0.706
# 19 vertex normals

vt 0.510 0.361 0.652
vt 0.510 0.955 0.652
vt 0.476 0.955 0.652
vt 0.476 0.361 0.652
vt 0.263 0.302 0.000
vt 0.263 0.130 0.000
vt 0.281 0.130 0.000
vt 0.281 0.302 0.000
vt 0.970 0.361 0.000
vt 0.970 0.955 0.000
vt 0.732 0.955 0.970
vt 0.732 0.361 0.970
vt 0.723 0.197 0.000
vt 0.558 0.290 0.000
vt 0.553 0.285 0.000
vt 0.482 0.028 0.000
vt 0.723 0.028 0.000
vt 0.022 0.955 0.000
vt 0.022 0.361 0.000
vt 0.245 0.361 0.970
vt 0.245 0.955 0.970
vt 0.424 0.039 0.000
vt 0.433 0.046 0.000
vt 0.519 0.302 0.000
vt 0.262 0.955 0.998
vt 0.262 0.361 0.998
vt 0.979 0.028 0.000
vt 0.891 0.285 0.000
vt 0.886 0.289 0.000
vt 0.741 0.197 0.000
vt 0.741 0.028 0.000
vt 0.715 0.361 1.000
vt 0.715 0.955 1.000
vt 0.714 0.964 0.980
vt 0.510 0.964 0.635
vt 0.963 0.964 0.000
vt 0.725 0.964 0.961
vt 0.252 0.964 0.961
vt 0.028 0.964 0.000
vt 0.476 0.964 0.635
vt 0.262 0.964 0.978
vt 0.092 0.046 0.000
vt 0.101 0.039 0.000
vt 0.022 0.302 0.000
# 44 texture coords

g Box01
f 1/1/1 2/2/1 3/3/2 4/4/2 
f 5/5/3 1/6/3 4/7/3 6/8/3 
f 7/9/4 8/10/4 9/11/4 10/12/4 
f 11/13/5 12/14/6 13/15/7 14/16/7 15/17/6 
f 16/18/8 17/19/8 18/20/8 19/21/8 
f 4/7/3 20/22/3 18/23/3 17/24/3 6/8/3 
f 4/4/9 3/3/9 21/25/9 20/26/9 
f 22/27/6 23/28/6 24/29/6 25/30/6 26/31/6 
f 27/32/10 10/12/10 9/11/10 28/33/10 
f 18/20/11 20/26/11 21/25/11 19/21/11 
f 12/34/12 11/35/12 2/2/12 28/33/12 
f 8/10/13 14/36/13 13/37/13 9/11/13 
f 19/21/14 23/38/14 22/39/14 16/18/14 
f 3/3/15 25/40/15 24/41/15 21/25/15 
f 9/11/16 13/37/16 12/34/16 28/33/16 
f 21/25/17 24/41/17 23/38/17 19/21/17 
f 27/32/18 28/33/18 2/2/1 1/1/1 
f 10/42/3 27/43/3 1/6/3 5/5/3 7/44/3 
f 15/17/6 26/31/6 25/30/5 11/13/5 
f 11/35/19 25/40/19 3/3/19 2/2/19 
# 20 polygons

