# 3ds Max Wavefront OBJ Exporter v0.97b - (c)2007 guruware
# File Created: 22.08.2012 14:10:33

#
# object Cylinder02
#

v  -1.188 0.000 -1.202
v  -1.117 -0.406 -1.202
v  -1.117 -0.406 -0.143
v  -1.188 0.000 -0.143
v  -0.910 -0.764 -1.202
v  -0.910 -0.764 -0.143
v  -0.594 -1.029 -1.202
v  -0.594 -1.029 -0.143
v  -0.206 -1.170 -1.202
v  -0.206 -1.170 -0.143
v  0.206 -1.170 -1.202
v  0.206 -1.170 -0.143
v  0.594 -1.029 -1.202
v  0.594 -1.029 -0.143
v  0.910 -0.764 -1.202
v  0.910 -0.764 -0.143
v  1.117 -0.406 -1.202
v  1.117 -0.406 -0.143
v  1.188 -0.000 -1.202
v  1.188 -0.000 -0.143
v  1.117 0.406 -1.202
v  1.117 0.406 -0.143
v  0.910 0.764 -1.202
v  0.910 0.764 -0.143
v  0.594 1.029 -1.202
v  0.594 1.029 -0.143
v  0.206 1.170 -1.202
v  0.206 1.170 -0.143
v  -0.206 1.170 -1.202
v  -0.206 1.170 -0.143
v  -0.594 1.029 -1.202
v  -0.594 1.029 -0.143
v  -0.910 0.764 -1.202
v  -0.910 0.764 -0.143
v  -1.117 0.406 -1.202
v  -1.117 0.406 -0.143
v  -0.850 -0.713 -1.279
v  -1.043 -0.380 -1.279
v  -1.110 0.000 -1.279
v  -1.043 0.380 -1.279
v  -0.850 0.713 -1.279
v  -0.555 0.961 -1.279
v  -0.193 1.093 -1.279
v  0.193 1.093 -1.279
v  0.555 0.961 -1.279
v  0.850 0.713 -1.279
v  1.043 0.380 -1.279
v  1.110 -0.000 -1.279
v  1.043 -0.380 -1.279
v  0.850 -0.713 -1.279
v  0.555 -0.961 -1.279
v  0.193 -1.093 -1.279
v  -0.193 -1.093 -1.279
v  -0.555 -0.961 -1.279
v  -1.043 -0.380 -0.066
v  -1.110 0.000 -0.066
v  -0.850 -0.713 -0.066
v  -0.555 -0.961 -0.066
v  -0.193 -1.093 -0.066
v  0.193 -1.093 -0.066
v  0.555 -0.961 -0.066
v  0.850 -0.713 -0.066
v  1.043 -0.380 -0.066
v  1.110 -0.000 -0.066
v  1.043 0.380 -0.066
v  0.850 0.713 -0.066
v  0.555 0.961 -0.066
v  0.193 1.093 -0.066
v  -0.193 1.093 -0.066
v  -0.555 0.961 -0.066
v  -0.850 0.713 -0.066
v  -1.043 0.380 -0.066
# 72 vertices

vn -1.000 0.000 -0.000
vn -0.940 -0.342 -0.000
vn -0.766 -0.643 -0.000
vn -0.500 -0.866 -0.000
vn -0.174 -0.985 0.000
vn 0.174 -0.985 0.000
vn 0.500 -0.866 0.000
vn 0.766 -0.643 0.000
vn 0.940 -0.342 0.000
vn 1.000 -0.000 0.000
vn 0.940 0.342 0.000
vn 0.766 0.643 0.000
vn 0.500 0.866 0.000
vn 0.174 0.985 -0.000
vn -0.174 0.985 -0.000
vn -0.500 0.866 -0.000
vn -0.766 0.643 -0.000
vn -0.940 0.342 -0.000
vn 0.000 -0.000 -1.000
vn -0.696 -0.123 -0.707
vn -0.696 -0.123 0.707
vn -0.612 -0.354 -0.707
vn -0.612 -0.354 0.707
vn -0.455 -0.542 -0.707
vn -0.455 -0.542 0.707
vn -0.242 -0.664 -0.707
vn -0.242 -0.664 0.707
vn 0.000 -0.707 -0.707
vn 0.000 -0.707 0.707
vn 0.242 -0.664 -0.707
vn 0.242 -0.664 0.707
vn 0.455 -0.542 -0.707
vn 0.455 -0.542 0.707
vn 0.612 -0.354 -0.707
vn 0.612 -0.354 0.707
vn 0.696 -0.123 -0.707
vn 0.696 -0.123 0.707
vn 0.696 0.123 -0.707
vn 0.696 0.123 0.707
vn 0.612 0.354 -0.707
vn 0.612 0.354 0.707
vn 0.455 0.542 -0.707
vn 0.455 0.542 0.707
vn 0.242 0.664 -0.707
vn 0.242 0.664 0.707
vn 0.000 0.707 -0.707
vn 0.000 0.707 0.707
vn -0.242 0.664 -0.707
vn -0.242 0.664 0.707
vn -0.455 0.542 -0.707
vn -0.455 0.542 0.707
vn -0.612 0.354 -0.707
vn -0.612 0.354 0.707
vn -0.696 0.123 -0.707
vn -0.696 0.123 0.707
# 55 vertex normals

vt 0.734 0.971 1.014
vt 0.686 0.971 1.013
vt 0.686 0.799 1.013
vt 0.734 0.799 1.014
vt 0.638 0.971 1.008
vt 0.638 0.799 1.008
vt 0.590 0.971 1.003
vt 0.590 0.799 1.003
vt 0.541 0.971 0.999
vt 0.541 0.799 0.999
vt 0.491 0.971 0.999
vt 0.491 0.799 0.999
vt 0.442 0.971 1.003
vt 0.442 0.799 1.003
vt 0.394 0.971 1.008
vt 0.394 0.799 1.008
vt 0.346 0.971 1.013
vt 0.346 0.799 1.013
vt 0.298 0.971 1.014
vt 0.298 0.799 1.014
vt 0.250 0.971 1.013
vt 0.250 0.799 1.013
vt 0.202 0.971 1.008
vt 0.202 0.799 1.008
vt 0.153 0.971 1.003
vt 0.153 0.799 1.003
vt 0.104 0.971 0.999
vt 0.104 0.799 0.999
vt 0.055 0.971 0.999
vt 0.055 0.799 0.999
vt 0.928 0.971 0.999
vt 0.879 0.971 1.003
vt 0.879 0.799 1.003
vt 0.928 0.799 0.999
vt 0.830 0.971 1.008
vt 0.830 0.799 1.008
vt 0.782 0.971 1.013
vt 0.782 0.799 1.013
vt 0.770 0.171 0.000
vt 0.830 0.274 0.000
vt 0.851 0.392 0.000
vt 0.830 0.510 0.000
vt 0.770 0.614 0.000
vt 0.679 0.691 0.000
vt 0.566 0.732 0.000
vt 0.447 0.732 0.000
vt 0.334 0.691 0.000
vt 0.242 0.614 0.000
vt 0.182 0.510 0.000
vt 0.162 0.392 0.000
vt 0.182 0.274 0.000
vt 0.242 0.171 0.000
vt 0.334 0.094 0.000
vt 0.447 0.053 0.000
vt 0.566 0.053 0.000
vt 0.679 0.094 0.000
vt 0.875 0.392 0.000
vt 0.853 0.266 0.000
vt 0.686 0.786 0.946
vt 0.734 0.786 0.947
vt 0.789 0.155 0.000
vt 0.638 0.786 0.941
vt 0.691 0.073 0.000
vt 0.590 0.786 0.937
vt 0.570 0.029 0.000
vt 0.541 0.786 0.933
vt 0.442 0.029 0.000
vt 0.491 0.786 0.933
vt 0.322 0.073 0.000
vt 0.442 0.786 0.937
vt 0.224 0.155 0.000
vt 0.394 0.786 0.941
vt 0.160 0.266 0.000
vt 0.346 0.786 0.946
vt 0.137 0.392 0.000
vt 0.298 0.786 0.947
vt 0.160 0.518 0.000
vt 0.250 0.786 0.946
vt 0.224 0.629 0.000
vt 0.202 0.786 0.941
vt 0.322 0.712 0.000
vt 0.153 0.786 0.937
vt 0.442 0.756 0.000
vt 0.104 0.786 0.933
vt 0.570 0.756 0.000
vt 0.928 0.786 0.933
vt 0.977 0.786 0.933
vt 0.977 0.799 0.999
vt 0.691 0.712 0.000
vt 0.879 0.786 0.937
vt 0.789 0.629 0.000
vt 0.830 0.786 0.941
vt 0.853 0.518 0.000
vt 0.782 0.786 0.946
# 94 texture coords

g Cylinder02
f 1/1/1 2/2/2 3/3/2 4/4/1 
f 2/2/2 5/5/3 6/6/3 3/3/2 
f 5/5/3 7/7/4 8/8/4 6/6/3 
f 7/7/4 9/9/5 10/10/5 8/8/4 
f 9/9/5 11/11/6 12/12/6 10/10/5 
f 11/11/6 13/13/7 14/14/7 12/12/6 
f 13/13/7 15/15/8 16/16/8 14/14/7 
f 15/15/8 17/17/9 18/18/9 16/16/8 
f 17/17/9 19/19/10 20/20/10 18/18/9 
f 19/19/10 21/21/11 22/22/11 20/20/10 
f 21/21/11 23/23/12 24/24/12 22/22/11 
f 23/23/12 25/25/13 26/26/13 24/24/12 
f 25/25/13 27/27/14 28/28/14 26/26/13 
f 27/27/14 29/29/15 30/30/15 28/28/14 
f 29/31/15 31/32/16 32/33/16 30/34/15 
f 31/32/16 33/35/17 34/36/17 32/33/16 
f 33/35/17 35/37/18 36/38/18 34/36/17 
f 35/37/18 1/1/1 4/4/1 36/38/18 
f 37/39/19 38/40/19 39/41/19 40/42/19 41/43/19 42/44/19 43/45/19 44/46/19 45/47/19 46/48/19 47/49/19 48/50/19 49/51/19 50/52/19 51/53/19 52/54/19 53/55/19 54/56/19 
f 1/57/20 39/41/20 38/40/20 2/58/20 
f 3/3/21 55/59/21 56/60/21 4/4/21 
f 2/58/22 38/40/22 37/39/22 5/61/22 
f 6/6/23 57/62/23 55/59/23 3/3/23 
f 5/61/24 37/39/24 54/56/24 7/63/24 
f 8/8/25 58/64/25 57/62/25 6/6/25 
f 7/63/26 54/56/26 53/55/26 9/65/26 
f 10/10/27 59/66/27 58/64/27 8/8/27 
f 9/65/28 53/55/28 52/54/28 11/67/28 
f 12/12/29 60/68/29 59/66/29 10/10/29 
f 11/67/30 52/54/30 51/53/30 13/69/30 
f 14/14/31 61/70/31 60/68/31 12/12/31 
f 13/69/32 51/53/32 50/52/32 15/71/32 
f 16/16/33 62/72/33 61/70/33 14/14/33 
f 15/71/34 50/52/34 49/51/34 17/73/34 
f 18/18/35 63/74/35 62/72/35 16/16/35 
f 17/73/36 49/51/36 48/50/36 19/75/36 
f 20/20/37 64/76/37 63/74/37 18/18/37 
f 19/75/38 48/50/38 47/49/38 21/77/38 
f 22/22/39 65/78/39 64/76/39 20/20/39 
f 21/77/40 47/49/40 46/48/40 23/79/40 
f 24/24/41 66/80/41 65/78/41 22/22/41 
f 23/79/42 46/48/42 45/47/42 25/81/42 
f 26/26/43 67/82/43 66/80/43 24/24/43 
f 25/81/44 45/47/44 44/46/44 27/83/44 
f 28/28/45 68/84/45 67/82/45 26/26/45 
f 27/83/46 44/46/46 43/45/46 29/85/46 
f 30/34/47 69/86/47 68/87/47 28/88/47 
f 29/85/48 43/45/48 42/44/48 31/89/48 
f 32/33/49 70/90/49 69/86/49 30/34/49 
f 31/89/50 42/44/50 41/43/50 33/91/50 
f 34/36/51 71/92/51 70/90/51 32/33/51 
f 33/91/52 41/43/52 40/42/52 35/93/52 
f 36/38/53 72/94/53 71/92/53 34/36/53 
f 35/93/54 40/42/54 39/41/54 1/57/54 
f 4/4/55 56/60/55 72/94/55 36/38/55 
# 55 polygons

