# 3ds Max Wavefront OBJ Exporter v0.97b - (c)2007 guruware
# File Created: 22.08.2012 21:03:46

#
# object Plane01
#

v  -25.070 21.433 -35.420
v  -24.556 19.513 -36.137
v  -26.752 18.924 -35.674
v  -27.267 20.844 -35.199
v  -24.041 17.593 -36.982
v  -26.238 17.004 -36.213
v  -28.435 16.415 -35.569
v  -28.950 18.335 -35.269
v  -29.464 20.255 -34.989
v  -31.146 17.746 -34.985
v  -31.661 19.667 -34.801
v  -30.632 15.826 -35.175
v  -32.829 15.238 -34.953
v  -33.343 17.158 -34.799
v  -33.858 19.078 -34.653
v  -35.026 14.649 -34.823
v  -35.540 16.569 -34.688
v  -37.223 14.061 -34.758
v  -37.737 15.981 -34.633
v  -38.251 17.901 -34.521
v  -36.055 18.489 -34.565
v  -39.420 13.472 -34.734
v  -39.934 15.392 -34.613
v  -41.616 12.883 -34.732
v  -42.131 14.803 -34.612
v  -42.645 16.723 -34.505
v  -40.448 17.312 -34.506
v  -26.099 25.273 -34.671
v  -25.584 23.353 -34.958
v  -27.781 22.764 -34.855
v  -28.296 24.684 -34.615
v  -29.978 22.175 -34.747
v  -30.493 24.095 -34.554
v  -32.175 21.587 -34.628
v  -34.372 20.998 -34.524
v  -34.886 22.918 -34.422
v  -32.689 23.507 -34.484
v  -36.569 20.409 -34.464
v  -38.766 19.821 -34.435
v  -39.280 21.741 -34.373
v  -37.083 22.329 -34.388
v  -40.962 19.232 -34.425
v  -43.160 18.643 -34.425
v  -43.674 20.563 -34.368
v  -41.477 21.152 -34.368
v  -28.810 26.604 -34.453
v  -26.614 27.193 -34.481
v  -31.007 26.015 -34.422
v  -31.521 27.935 -34.343
v  -29.325 28.524 -34.356
v  -27.128 29.113 -34.369
v  -33.204 25.426 -34.386
v  -35.401 24.838 -34.355
v  -35.915 26.758 -34.316
v  -33.718 27.347 -34.328
v  -37.597 24.250 -34.339
v  -39.795 23.661 -34.333
v  -40.309 25.581 -34.309
v  -38.112 26.169 -34.311
v  -41.992 23.072 -34.331
v  -44.188 22.483 -34.331
v  -44.703 24.403 -34.309
v  -42.506 24.992 -34.309
v  -29.839 30.444 -34.312
v  -27.642 31.033 -34.316
v  -32.036 29.855 -34.308
v  -32.550 31.776 -34.297
v  -30.353 32.364 -34.299
v  -28.157 32.953 -34.300
v  -34.233 29.267 -34.303
v  -36.430 28.678 -34.300
v  -36.944 30.598 -34.295
v  -34.747 31.187 -34.296
v  -38.626 28.089 -34.299
v  -40.824 27.501 -34.299
v  -41.338 29.421 -34.295
v  -39.141 30.009 -34.295
v  -43.020 26.912 -34.299
v  -45.217 26.323 -34.299
v  -45.732 28.244 -34.295
v  -43.535 28.832 -34.295
v  -30.868 34.285 -34.294
v  -28.671 34.873 -34.294
v  -33.065 33.696 -34.294
v  -33.579 35.616 -34.294
v  -31.382 36.204 -34.294
v  -29.185 36.793 -34.294
v  -35.262 33.107 -34.294
v  -37.459 32.518 -34.294
v  -37.973 34.438 -34.294
v  -35.776 35.027 -34.294
v  -39.656 31.930 -34.294
v  -41.853 31.341 -34.294
v  -42.367 33.261 -34.294
v  -40.170 33.850 -34.294
v  -44.049 30.753 -34.294
v  -46.246 30.164 -34.294
v  -46.761 32.084 -34.294
v  -44.564 32.673 -34.294
# 99 vertices

vn -0.167 0.209 -0.964
vn -0.273 0.300 -0.914
vn -0.244 0.191 -0.951
vn -0.141 0.170 -0.975
vn -0.319 0.249 -0.914
vn -0.343 0.167 -0.924
vn -0.216 0.108 -0.970
vn -0.180 0.099 -0.979
vn -0.125 0.108 -0.986
vn -0.125 0.071 -0.990
vn -0.094 0.067 -0.993
vn -0.153 0.057 -0.987
vn -0.089 0.058 -0.994
vn -0.082 0.056 -0.995
vn -0.068 0.055 -0.996
vn -0.059 0.054 -0.997
vn -0.052 0.054 -0.997
vn -0.034 0.057 -0.998
vn -0.031 0.053 -0.998
vn -0.025 0.046 -0.999
vn -0.042 0.047 -0.998
vn -0.021 0.057 -0.998
vn -0.019 0.055 -0.998
vn -0.016 0.058 -0.998
vn -0.015 0.055 -0.998
vn -0.013 0.045 -0.999
vn -0.016 0.045 -0.999
vn -0.054 0.100 -0.994
vn -0.091 0.167 -0.982
vn -0.089 0.127 -0.988
vn -0.051 0.091 -0.995
vn -0.076 0.092 -0.993
vn -0.051 0.070 -0.996
vn -0.069 0.065 -0.995
vn -0.050 0.047 -0.998
vn -0.033 0.037 -0.999
vn -0.044 0.051 -0.998
vn -0.031 0.039 -0.999
vn -0.018 0.034 -0.999
vn -0.012 0.024 -1.000
vn -0.019 0.028 -0.999
vn -0.011 0.033 -0.999
vn -0.009 0.033 -0.999
vn -0.006 0.023 -1.000
vn -0.007 0.023 -1.000
vn -0.031 0.059 -0.998
vn -0.031 0.070 -0.997
vn -0.028 0.047 -0.998
vn -0.014 0.026 -1.000
vn -0.015 0.033 -0.999
vn -0.016 0.036 -0.999
vn -0.026 0.034 -0.999
vn -0.017 0.023 -1.000
vn -0.008 0.013 -1.000
vn -0.011 0.019 -1.000
vn -0.011 0.018 -1.000
vn -0.006 0.015 -1.000
vn -0.003 0.008 -1.000
vn -0.004 0.009 -1.000
vn -0.004 0.014 -1.000
vn -0.002 0.008 -1.000
vn -0.006 0.013 -1.000
vn -0.006 0.016 -1.000
vn -0.005 0.011 -1.000
vn -0.002 0.003 -1.000
vn -0.002 0.004 -1.000
vn -0.002 0.005 -1.000
vn -0.005 0.007 -1.000
vn -0.001 0.001 -1.000
vn -0.001 0.002 -1.000
vn -0.001 0.003 -1.000
vn -0.000 0.001 -1.000
vn 0.000 0.000 -1.000
vn -0.000 0.000 -1.000
# 74 vertex normals

vt 0.000 0.200 0.000
vt 0.000 0.100 0.000
vt 0.125 0.100 0.000
vt 0.125 0.200 0.000
vt 0.000 0.000 0.000
vt 0.125 0.000 0.000
vt 0.250 0.000 0.000
vt 0.250 0.100 0.000
vt 0.250 0.200 0.000
vt 0.375 0.100 0.000
vt 0.375 0.200 0.000
vt 0.375 0.000 0.000
vt 0.500 0.000 0.000
vt 0.500 0.100 0.000
vt 0.500 0.200 0.000
vt 0.625 0.000 0.000
vt 0.625 0.100 0.000
vt 0.750 0.000 0.000
vt 0.750 0.100 0.000
vt 0.750 0.200 0.000
vt 0.625 0.200 0.000
vt 0.875 0.000 0.000
vt 0.875 0.100 0.000
vt 1.000 0.000 0.000
vt 1.000 0.100 0.000
vt 1.000 0.200 0.000
vt 0.875 0.200 0.000
vt 0.000 0.400 0.000
vt 0.000 0.300 0.000
vt 0.125 0.300 0.000
vt 0.125 0.400 0.000
vt 0.250 0.300 0.000
vt 0.250 0.400 0.000
vt 0.375 0.300 0.000
vt 0.500 0.300 0.000
vt 0.500 0.400 0.000
vt 0.375 0.400 0.000
vt 0.625 0.300 0.000
vt 0.750 0.300 0.000
vt 0.750 0.400 0.000
vt 0.625 0.400 0.000
vt 0.875 0.300 0.000
vt 1.000 0.300 0.000
vt 1.000 0.400 0.000
vt 0.875 0.400 0.000
vt 0.125 0.500 0.000
vt 0.000 0.500 0.000
vt 0.250 0.500 0.000
vt 0.250 0.600 0.000
vt 0.125 0.600 0.000
vt 0.000 0.600 0.000
vt 0.375 0.500 0.000
vt 0.500 0.500 0.000
vt 0.500 0.600 0.000
vt 0.375 0.600 0.000
vt 0.625 0.500 0.000
vt 0.750 0.500 0.000
vt 0.750 0.600 0.000
vt 0.625 0.600 0.000
vt 0.875 0.500 0.000
vt 1.000 0.500 0.000
vt 1.000 0.600 0.000
vt 0.875 0.600 0.000
vt 0.125 0.700 0.000
vt 0.000 0.700 0.000
vt 0.250 0.700 0.000
vt 0.250 0.800 0.000
vt 0.125 0.800 0.000
vt 0.000 0.800 0.000
vt 0.375 0.700 0.000
vt 0.500 0.700 0.000
vt 0.500 0.800 0.000
vt 0.375 0.800 0.000
vt 0.625 0.700 0.000
vt 0.750 0.700 0.000
vt 0.750 0.800 0.000
vt 0.625 0.800 0.000
vt 0.875 0.700 0.000
vt 1.000 0.700 0.000
vt 1.000 0.800 0.000
vt 0.875 0.800 0.000
vt 0.125 0.900 0.000
vt 0.000 0.900 0.000
vt 0.250 0.900 0.000
vt 0.250 1.000 0.000
vt 0.125 1.000 0.000
vt 0.000 1.000 0.000
vt 0.375 0.900 0.000
vt 0.500 0.900 0.000
vt 0.500 1.000 0.000
vt 0.375 1.000 0.000
vt 0.625 0.900 0.000
vt 0.750 0.900 0.000
vt 0.750 1.000 0.000
vt 0.625 1.000 0.000
vt 0.875 0.900 0.000
vt 1.000 0.900 0.000
vt 1.000 1.000 0.000
vt 0.875 1.000 0.000
# 99 texture coords

g Plane01
f 1/1/1 2/2/2 3/3/3 4/4/4 
f 5/5/5 6/6/6 3/3/3 2/2/2 
f 7/7/7 8/8/8 3/3/3 6/6/6 
f 9/9/9 4/4/4 3/3/3 8/8/8 
f 9/9/9 8/8/8 10/10/10 11/11/11 
f 7/7/7 12/12/12 10/10/10 8/8/8 
f 13/13/13 14/14/14 10/10/10 12/12/12 
f 15/15/15 11/11/11 10/10/10 14/14/14 
f 13/13/13 16/16/16 17/17/17 14/14/14 
f 18/18/18 19/19/19 17/17/17 16/16/16 
f 20/20/20 21/21/21 17/17/17 19/19/19 
f 15/15/15 14/14/14 17/17/17 21/21/21 
f 18/18/18 22/22/22 23/23/23 19/19/19 
f 24/24/24 25/25/25 23/23/23 22/22/22 
f 26/26/26 27/27/27 23/23/23 25/25/25 
f 20/20/20 19/19/19 23/23/23 27/27/27 
f 28/28/28 29/29/29 30/30/30 31/31/31 
f 1/1/1 4/4/4 30/30/30 29/29/29 
f 9/9/9 32/32/32 30/30/30 4/4/4 
f 33/33/33 31/31/31 30/30/30 32/32/32 
f 9/9/9 11/11/11 34/34/34 32/32/32 
f 15/15/15 35/35/35 34/34/34 11/11/11 
f 36/36/36 37/37/37 34/34/34 35/35/35 
f 33/33/33 32/32/32 34/34/34 37/37/37 
f 15/15/15 21/21/21 38/38/38 35/35/35 
f 20/20/20 39/39/39 38/38/38 21/21/21 
f 40/40/40 41/41/41 38/38/38 39/39/39 
f 36/36/36 35/35/35 38/38/38 41/41/41 
f 20/20/20 27/27/27 42/42/42 39/39/39 
f 26/26/26 43/43/43 42/42/42 27/27/27 
f 44/44/44 45/45/45 42/42/42 43/43/43 
f 40/40/40 39/39/39 42/42/42 45/45/45 
f 28/28/28 31/31/31 46/46/46 47/47/47 
f 33/33/33 48/48/48 46/46/46 31/31/31 
f 49/49/49 50/50/50 46/46/46 48/48/48 
f 51/51/51 47/47/47 46/46/46 50/50/50 
f 33/33/33 37/37/37 52/52/52 48/48/48 
f 36/36/36 53/53/53 52/52/52 37/37/37 
f 54/54/54 55/55/55 52/52/52 53/53/53 
f 49/49/49 48/48/48 52/52/52 55/55/55 
f 36/36/36 41/41/41 56/56/56 53/53/53 
f 40/40/40 57/57/57 56/56/56 41/41/41 
f 58/58/58 59/59/59 56/56/56 57/57/57 
f 54/54/54 53/53/53 56/56/56 59/59/59 
f 40/40/40 45/45/45 60/60/60 57/57/57 
f 44/44/44 61/61/60 60/60/60 45/45/45 
f 62/62/61 63/63/61 60/60/60 61/61/60 
f 58/58/58 57/57/57 60/60/60 63/63/61 
f 51/51/51 50/50/50 64/64/62 65/65/63 
f 49/49/49 66/66/64 64/64/62 50/50/50 
f 67/67/65 68/68/66 64/64/62 66/66/64 
f 69/69/67 65/65/63 64/64/62 68/68/66 
f 49/49/49 55/55/55 70/70/68 66/66/64 
f 54/54/54 71/71/67 70/70/68 55/55/55 
f 72/72/69 73/73/70 70/70/68 71/71/67 
f 67/67/65 66/66/64 70/70/68 73/73/70 
f 54/54/54 59/59/59 74/74/66 71/71/67 
f 58/58/58 75/75/71 74/74/66 59/59/59 
f 76/76/72 77/77/72 74/74/66 75/75/71 
f 72/72/69 71/71/67 74/74/66 77/77/72 
f 58/58/58 63/63/61 78/78/71 75/75/71 
f 62/62/61 79/79/71 78/78/71 63/63/61 
f 80/80/72 81/81/72 78/78/71 79/79/71 
f 76/76/72 75/75/71 78/78/71 81/81/72 
f 69/69/67 68/68/66 82/82/72 83/83/72 
f 67/67/65 84/84/72 82/82/72 68/68/66 
f 85/85/73 86/86/73 82/82/72 84/84/72 
f 87/87/73 83/83/72 82/82/72 86/86/73 
f 67/67/65 73/73/70 88/88/72 84/84/72 
f 72/72/69 89/89/74 88/88/72 73/73/70 
f 90/90/73 91/91/73 88/88/72 89/89/74 
f 85/85/73 84/84/72 88/88/72 91/91/73 
f 72/72/69 77/77/72 92/92/74 89/89/74 
f 76/76/72 93/93/74 92/92/74 77/77/72 
f 94/94/73 95/95/73 92/92/74 93/93/74 
f 90/90/73 89/89/74 92/92/74 95/95/73 
f 76/76/72 81/81/72 96/96/74 93/93/74 
f 80/80/72 97/97/74 96/96/74 81/81/72 
f 98/98/73 99/99/73 96/96/74 97/97/74 
f 94/94/73 93/93/74 96/96/74 99/99/73 
# 80 polygons

